<?xml version="1.0" encoding="UTF-8" standalone="no"?>
<svg width="25px" height="26px" viewBox="0 0 25 26" version="1.1" xmlns="http://www.w3.org/2000/svg" xmlns:xlink="http://www.w3.org/1999/xlink">
    <!-- Generator: Sketch 40 (33762) - http://www.bohemiancoding.com/sketch -->
    <title>Page 1</title>
    <desc>Created with Sketch.</desc>
    <defs>
        <polygon id="path-1" points="0.00012195122 25 24.7853659 25 24.7853659 0.214695122 0.00012195122 0.214695122 0.00012195122 25"></polygon>
    </defs>
    <g id="Version-1" stroke="none" stroke-width="1" fill="none" fill-rule="evenodd">
        <g id="iPhone-7-Copy-26" transform="translate(-320.000000, -17.000000)">
            <g id="Page-1" transform="translate(320.000000, 17.000000)">
                <g id="Group-3" transform="translate(0.000000, 0.395061)">
                    <mask id="mask-2" fill="white">
                        <use xlink:href="#path-1"></use>
                    </mask>
                    <g id="Clip-2"></g>
                    <path d="M12.3928049,0.214695122 C5.54829268,0.214695122 0.00012195122,5.76286585 0.00012195122,12.607378 C0.00012195122,19.4518902 5.54829268,25.000061 12.3928049,25.000061 C19.2379268,25.000061 24.7854878,19.4518902 24.7854878,12.607378 C24.7854878,5.76286585 19.2379268,0.214695122 12.3928049,0.214695122 M12.3928049,2.04396341 C18.2171951,2.04396341 22.9562195,6.7829878 22.9562195,12.607378 C22.9562195,18.4317683 18.2171951,23.1707927 12.3928049,23.1707927 C6.56841463,23.1707927 1.82939024,18.4317683 1.82939024,12.607378 C1.82939024,6.7829878 6.56841463,2.04396341 12.3928049,2.04396341" id="Fill-1" fill="#11212B" mask="url(#mask-2)"></path>
                </g>
                <path d="M15.2081707,14.3637805 C14.3813415,14.087561 13.880122,13.594878 13.5728049,13.0985366 C13.91,12.7869512 14.2532927,12.3052439 14.505122,11.5485366 C15.2081707,9.43695122 14.505122,7.32536585 12.3935366,7.32536585 C10.2813415,7.32536585 9.57829268,9.43695122 10.2813415,11.5485366 C10.5331707,12.3052439 10.8764634,12.7869512 11.212439,13.0985366 C10.9057317,13.594878 10.4039024,14.087561 9.57829268,14.3637805 C7.46670732,15.067439 7.46670732,17.1790244 7.46670732,17.1790244 C7.46670732,17.1790244 8.87341463,18.5869512 12.3935366,18.5869512 C15.9118293,18.5869512 17.3197561,17.1790244 17.3197561,17.1790244 C17.3197561,17.1790244 17.3197561,15.067439 15.2081707,14.3637805" id="Fill-4" fill="#31294F"></path>
            </g>
        </g>
    </g>
</svg>