<?xml version="1.0" encoding="UTF-8" standalone="no"?>
<svg width="73px" height="20px" viewBox="0 0 73 20" version="1.1" xmlns="http://www.w3.org/2000/svg" xmlns:xlink="http://www.w3.org/1999/xlink">
    <!-- Generator: Sketch 40 (33762) - http://www.bohemiancoding.com/sketch -->
    <title>Page 1</title>
    <desc>Created with Sketch.</desc>
    <defs></defs>
    <g id="Version-1" stroke="none" stroke-width="1" fill="none" fill-rule="evenodd">
        <g id="iPhone-7-Copy-26" transform="translate(-151.000000, -20.000000)" fill="#31294F">
            <g id="Page-1" transform="translate(151.000000, 20.000000)">
                <g id="Group">
                    <path d="M8.88063313,5.45732687 C8.86357063,5.20138937 8.81693313,4.90279562 8.73958313,4.56154562 C8.66337063,4.22029562 8.50980813,3.90065812 8.27889563,3.60206437 C8.04912063,3.30347062 7.71640188,3.04753312 7.28073938,2.83425187 C6.84621438,2.62097062 6.27007063,2.51404562 5.55344563,2.51404562 C4.44438313,2.51404562 3.59978938,2.80865812 3.01966438,3.39674562 C2.43953938,3.98597062 2.15004563,4.90279562 2.15004563,6.14835812 L2.15004563,13.8515081 C2.15004563,15.0970706 2.44408938,16.0144644 3.03274563,16.6031206 C3.62140188,17.1912081 4.48703938,17.4858206 5.63022688,17.4858206 C6.34685188,17.4858206 6.90991438,17.3834456 7.31941438,17.1786956 C7.72891438,16.9739456 8.04457063,16.7180081 8.26638313,16.4108831 C8.48819563,16.1037581 8.63777688,15.7755894 8.71455813,15.4258081 C8.79077063,15.0760269 8.84593938,14.7472894 8.88063313,14.4401644 C8.93182063,13.9453519 9.29013313,13.6979456 9.95557063,13.6979456 C10.3138831,13.6979456 10.5823331,13.7752956 10.7614894,13.9282894 C10.9412144,14.0818519 11.0305081,14.4060394 11.0305081,14.9008519 C11.0305081,15.5321644 10.9025394,16.1253706 10.6466019,16.6793331 C10.3906644,17.2344331 10.0232519,17.7161644 9.54607063,18.1256644 C9.06832063,18.5351644 8.48421438,18.8548019 7.79261438,19.0851456 C7.10215188,19.3154894 6.32978938,19.4309456 5.47666438,19.4309456 C4.72591438,19.4309456 4.01782063,19.3325519 3.35238313,19.1363331 C2.68694563,18.9406831 2.10682063,18.6210456 1.61257688,18.1768519 C1.11719563,17.7332269 0.725326875,17.1576519 0.435264375,16.4495581 C0.144633125,15.7414644 0.000170625,14.8752581 0.000170625,13.8515081 L0.000170625,6.14835812 C0.000170625,5.12460812 0.144633125,4.25897062 0.435264375,3.55030812 C0.725326875,2.84278312 1.12174563,2.26720812 1.62508938,1.82301437 C2.12786438,1.37995812 2.71253938,1.05975187 3.37854563,0.863533125 C4.04398313,0.667314375 4.75150813,0.568920625 5.50225813,0.568920625 C6.35538313,0.568920625 7.12319563,0.684376875 7.80569563,0.914720625 C8.48819563,1.14506437 9.06832063,1.46072062 9.54607063,1.86168937 C10.0232519,2.26265812 10.3906644,2.73187687 10.6466019,3.26934562 C10.9025394,3.80681437 11.0305081,4.39092062 11.0305081,5.02223312 C11.0305081,5.51704562 10.9412144,5.83725187 10.7614894,5.98171437 C10.5823331,6.12731437 10.3138831,6.19954562 9.95557063,6.19954562 C9.27307063,6.19954562 8.91475813,5.95270812 8.88063313,5.45732687" id="Fill-1"></path>
                    <path d="M39.024895,12.3417044 C38.9054575,12.5635169 38.7729388,12.7170794 38.6284763,12.8023919 C38.4828763,12.8877044 38.3338638,12.9303606 38.1803013,12.9303606 C38.0438013,12.9303606 37.9073013,12.8877044 37.7708013,12.8023919 C37.6343013,12.7170794 37.5063325,12.5635169 37.386895,12.3417044 L33.5484013,4.97127313 L33.5484013,18.5092294 C33.5484013,18.7651669 33.4369263,18.9574044 33.2156825,19.0853731 C32.99387,19.2133419 32.745895,19.2770419 32.4734638,19.2770419 C32.199895,19.2770419 31.9524888,19.2133419 31.731245,19.0853731 C31.5094325,18.9574044 31.3985263,18.7651669 31.3985263,18.5092294 L31.3985263,1.61849188 C31.3985263,1.22605438 31.5048825,0.953054375 31.7181638,0.799491875 C31.931445,0.645929375 32.1828325,0.569148125 32.4734638,0.569148125 C32.8653325,0.569148125 33.1900888,0.684035625 33.4460263,0.914379375 C33.7019638,1.14472313 33.9488013,1.48199188 34.188245,1.92561688 L38.205895,9.62876688 L42.2497075,1.92561688 C42.4885825,1.48199188 42.7359888,1.14472313 42.9919263,0.914379375 C43.2478638,0.684035625 43.5720513,0.569148125 43.9644888,0.569148125 C44.2539825,0.569148125 44.5059388,0.645929375 44.71922,0.799491875 C44.9325013,0.953054375 45.0394263,1.22605438 45.0394263,1.61849188 L45.0394263,18.5092294 C45.0394263,18.7651669 44.9279513,18.9574044 44.7067075,19.0853731 C44.484895,19.2133419 44.2374888,19.2770419 43.9644888,19.2770419 C43.6914888,19.2770419 43.4440825,19.2133419 43.22227,19.0853731 C43.0004575,18.9574044 42.8895513,18.7651669 42.8895513,18.5092294 L42.8895513,5.07364813 L39.024895,12.3417044 Z" id="Fill-4"></path>
                    <path d="M50.2541244,9.01474438 L54.2467494,9.01474438 C54.4850556,9.01474438 54.6687619,9.10858813 54.7967306,9.29627563 C54.9246994,9.48396313 54.9889681,9.69724438 54.9889681,9.93611938 C54.9889681,10.1403006 54.9286806,10.3370881 54.8098119,10.5247756 C54.6898056,10.7124631 54.5026869,10.8057381 54.2467494,10.8057381 L50.2541244,10.8057381 L50.2541244,17.3321444 L58.1876181,17.3321444 C58.4264931,17.3321444 58.6101994,17.4305381 58.7381681,17.6267569 C58.8661369,17.8229756 58.9298369,18.0573006 58.9298369,18.3303006 C58.9298369,18.5691756 58.8701181,18.7870069 58.7506806,18.9826569 C58.6312431,19.1794444 58.4435556,19.2772694 58.1876181,19.2772694 L49.0768119,19.2772694 C48.8379369,19.2772694 48.6161244,19.2135694 48.4113744,19.0856006 C48.2066244,18.9570631 48.1042494,18.7653944 48.1042494,18.5094569 L48.1042494,1.33661938 C48.1042494,1.08068188 48.2066244,0.889013125 48.4113744,0.761044375 C48.6161244,0.633075625 48.8379369,0.568806875 49.0768119,0.568806875 L58.1876181,0.568806875 C58.4435556,0.568806875 58.6312431,0.667200625 58.7506806,0.863419375 C58.8701181,1.05963813 58.9298369,1.27746938 58.9298369,1.51577563 C58.9298369,1.78877563 58.8661369,2.02366938 58.7381681,2.21988813 C58.6101994,2.41610688 58.4264931,2.51393188 58.1876181,2.51393188 L50.2541244,2.51393188 L50.2541244,9.01474438 Z" id="Fill-6"></path>
                    <path d="M71.5269669,0.569034375 C71.7829044,0.569034375 71.9751419,0.671409375 72.1031106,0.876159375 C72.2305106,1.08090938 72.2947794,1.30272188 72.2947794,1.54159688 C72.2947794,1.79753438 72.2305106,2.03242813 72.1031106,2.24514063 C71.9751419,2.45899063 71.7829044,2.56534688 71.5269669,2.56534688 L67.4063731,2.56534688 L67.4063731,18.5091156 C67.4063731,18.7656219 67.2954669,18.9572906 67.0736544,19.0852594 C66.8518419,19.2132281 66.6044356,19.2774969 66.3314356,19.2774969 C66.0584356,19.2774969 65.8110294,19.2132281 65.5897856,19.0852594 C65.3674044,18.9572906 65.2570669,18.7656219 65.2570669,18.5091156 L65.2570669,2.56534688 L61.1108794,2.56534688 C60.8720044,2.56534688 60.6843169,2.46297188 60.5478169,2.25822188 C60.4113169,2.05347188 60.3430669,1.81459688 60.3430669,1.54159688 C60.3430669,1.30272188 60.4067669,1.08090938 60.5347356,0.876159375 C60.6627044,0.671409375 60.8549419,0.569034375 61.1108794,0.569034375 L71.5269669,0.569034375 Z" id="Fill-8"></path>
                    <path d="M25.9336919,15.8219994 C28.6051106,13.1505806 28.6295669,8.70409313 25.9024106,5.97636813 C23.1752544,3.24921188 18.6662044,3.19290563 15.9390481,5.92006188 C13.2113231,8.64778688 13.4769294,13.3661369 15.8520294,15.7406681 L20.8519106,10.7402181 L25.9336919,15.8219994 Z" id="Fill-10"></path>
                </g>
            </g>
        </g>
    </g>
</svg>